<?xml version="1.0" encoding="UTF-8"?>
<svg version="1.1" xmlns="http://www.w3.org/2000/svg" width="620" height="227">
<path d="M0 0 C204.6 0 409.2 0 620 0 C620 74.91 620 149.82 620 227 C415.4 227 210.8 227 0 227 C0 152.09 0 77.18 0 0 Z " fill="#E7E7E7" transform="translate(0,0)"/>
<path d="M0 0 C2.1435461 1.33318111 4.11391233 2.67859758 6.125 4.1875 C6.72119141 4.62384766 7.31738281 5.06019531 7.93164062 5.50976562 C9.96077968 6.99807617 11.98031828 8.49888521 14 10 C15.54895187 11.14264223 17.09845058 12.28454346 18.6484375 13.42578125 C21.07895673 15.21578428 23.50887295 17.00655846 25.9362793 18.80078125 C31.98448189 23.26850283 38.08134813 27.66209871 44.21484375 32.01171875 C45.88289098 33.20251263 47.52996274 34.4249426 49.12890625 35.70703125 C51.11519086 37.07959953 52.66807335 37.48088707 55 38 C55.27946967 45.41893738 55.47175458 52.83651473 55.60424805 60.25952148 C55.65948629 62.7828238 55.73449666 65.30577526 55.82983398 67.82788086 C55.96368069 71.46035172 56.02572373 75.08816547 56.07421875 78.72265625 C56.13099289 79.84583755 56.18776703 80.96901886 56.2462616 82.12623596 C56.24884438 85.4231607 56.12198846 87.89500675 55 91 C51.67767123 94.09918874 48.02869141 95.96357255 44 98 C42.39848618 99.10002692 40.81465238 100.22692563 39.26171875 101.39453125 C38.51164551 101.95245361 37.76157227 102.51037598 36.98876953 103.08520508 C36.22935059 103.6552124 35.46993164 104.22521973 34.6875 104.8125 C33.03311694 106.04242683 31.37816486 107.27158861 29.72265625 108.5 C28.52020264 109.39332031 28.52020264 109.39332031 27.29345703 110.3046875 C22.46362756 113.87487442 17.57122643 117.35426945 12.66162109 120.81347656 C10.90039925 122.07112249 9.16289792 123.3577386 7.42578125 124.6484375 C6.26318821 125.49502156 5.10043361 126.34138382 3.9375 127.1875 C2.91527344 127.94417969 1.89304688 128.70085937 0.83984375 129.48046875 C-2 131 -2 131 -4.51953125 130.9921875 C-7.6646442 129.73414232 -9.96053543 128.03100787 -12.625 125.9375 C-13.68692462 125.11514189 -14.74943742 124.2935428 -15.8125 123.47265625 C-16.34488281 123.05773926 -16.87726563 122.64282227 -17.42578125 122.21533203 C-23.93988377 117.18629941 -30.71063873 112.48893587 -37.4609375 107.78515625 C-44.19837705 103.04821798 -50.84180496 98.18444403 -57.34375 93.12890625 C-59.11858106 91.80879998 -59.11858106 91.80879998 -62 91 C-62 73.84 -62 56.68 -62 39 C-61.01 39 -60.02 39 -59 39 C-59 38.34 -59 37.68 -59 37 C-57.32788086 35.70532227 -57.32788086 35.70532227 -55.02734375 34.25390625 C-50.42780651 31.28724515 -45.98644799 28.15832616 -41.5625 24.9375 C-40.79752197 24.38312256 -40.03254395 23.82874512 -39.24438477 23.25756836 C-36.82841327 21.50666075 -34.41400609 19.75361614 -32 18 C-28.81392536 15.68552701 -25.62620579 13.37334619 -22.4375 11.0625 C-21.724729 10.54357178 -21.01195801 10.02464355 -20.27758789 9.48999023 C-18.89674332 8.48941322 -17.51115585 7.49534471 -16.12060547 6.50830078 C-14.6182485 5.43973512 -13.12885379 4.35283697 -11.64892578 3.25341797 C-10.86888184 2.69412598 -10.08883789 2.13483398 -9.28515625 1.55859375 C-8.58398682 1.04482178 -7.88281738 0.5310498 -7.16040039 0.00170898 C-4.33696279 -1.30742927 -2.92469359 -0.93592563 0 0 Z " fill="#626262" transform="translate(139,56)"/>
<path d="M0 0 C2.64 0 5.28 0 8 0 C8 0.99 8 1.98 8 3 C8.70511719 2.51660156 9.41023438 2.03320312 10.13671875 1.53515625 C14.95449796 -1.04790955 19.67930898 -0.84772668 25 0 C29.38475843 2.03179093 32.1423688 4.84755808 35 8.6875 C36.67531474 14.23698007 37.22743132 19.84749478 35.0859375 25.34765625 C32.53071047 29.75748354 29.73677246 32.93304474 25 35 C14.83795782 35.91897891 14.83795782 35.91897891 11 34 C10.67 40.27 10.34 46.54 10 53 C6.7 53 3.4 53 0 53 C0 35.51 0 18.02 0 0 Z " fill="#4C4C4C" transform="translate(382,105)"/>
<path d="M0 0 C10.82912174 6.7027446 21.01148496 14.10783997 31 22 C27.09914009 26.17354138 22.89195108 29.34197088 18.1875 32.5625 C12.2249338 36.70308104 6.35057083 40.93117479 0.5625 45.3125 C-15.63853986 57.54617995 -15.63853986 57.54617995 -20 59 C-19.381533 54.61750736 -18.31912143 50.66598187 -16.85546875 46.4921875 C-16.42556641 45.25726563 -15.99566406 44.02234375 -15.55273438 42.75 C-15.097854 41.45826368 -14.64277504 40.16659727 -14.1875 38.875 C-13.30448072 36.35208778 -12.42388896 33.82833411 -11.54296875 31.3046875 C-10.90053223 29.46825684 -10.90053223 29.46825684 -10.24511719 27.59472656 C-8.74230227 23.25601148 -7.28839725 18.90237342 -5.85131836 14.54150391 C-4.18120532 9.55559144 -2.40403138 4.6847791 0 0 Z " fill="#E3E3E3" transform="translate(159,123)"/>
<path d="M0 0 C3 1 3 1 3.921875 2.8359375 C4.19515625 3.67382812 4.4684375 4.51171875 4.75 5.375 C6.30490374 9.96766934 7.92642441 14.52101846 9.62670898 19.0612793 C12.06987716 25.59147964 14.43232 32.08751045 16.31640625 38.8046875 C17.10527417 41.33808048 18.09894908 43.74104406 19.125 46.1875 C20.77965005 50.18518504 21.62590005 53.69785054 22 58 C16.39059394 55.06781047 11.5260573 51.44774651 6.49609375 47.6171875 C2.6254998 44.69273874 -1.34010346 41.90877365 -5.3125 39.125 C-13.29184025 33.5281852 -21.16350222 27.79467376 -29 22 C-25.38389407 18.18714535 -21.62266315 15.11788916 -17.3125 12.125 C-16.0729103 11.25651951 -14.83332701 10.38802986 -13.59375 9.51953125 C-12.68302734 8.8845874 -12.68302734 8.8845874 -11.75390625 8.23681641 C-10.14288756 7.10076119 -8.55457008 5.93269157 -6.96875 4.76171875 C-6.0921875 4.11847656 -5.215625 3.47523437 -4.3125 2.8125 C-3.54550781 2.24144531 -2.77851562 1.67039062 -1.98828125 1.08203125 C-1.33214844 0.72496094 -0.67601563 0.36789063 0 0 Z " fill="#E4E4E4" transform="translate(110,124)"/>
<path d="M0 0 C4.55174887 1.52011236 8.08845553 4.07491402 11.875 6.9375 C13.21475878 7.93500996 14.55460499 8.93240251 15.89453125 9.9296875 C16.57596191 10.43983398 17.25739258 10.94998047 17.95947266 11.47558594 C21.1467239 13.8566815 24.35442909 16.209578 27.5625 18.5625 C28.172146 19.01230225 28.78179199 19.46210449 29.40991211 19.92553711 C32.59349524 22.26790393 35.79983358 24.56610087 39.0546875 26.80859375 C39.70622803 27.26097412 40.35776855 27.71335449 41.02905273 28.17944336 C42.27524294 29.04174895 43.52716915 29.89583947 44.78540039 30.74047852 C46.24435391 31.75319883 47.63064293 32.8690672 49 34 C49 34.99 49 35.98 49 37 C47.50634766 38.42285156 47.50634766 38.42285156 45.4140625 39.890625 C44.65230713 40.43251465 43.89055176 40.9744043 43.10571289 41.53271484 C41.87776001 42.382771 41.87776001 42.382771 40.625 43.25 C39.80314209 43.82830566 38.98128418 44.40661133 38.13452148 45.00244141 C36.50126594 46.15079651 34.86548575 47.29557033 33.22705078 48.43652344 C31.3586963 49.7481812 29.51448088 51.08222141 27.68359375 52.4453125 C26.38615234 53.40050781 26.38615234 53.40050781 25.0625 54.375 C24.33160156 54.91898438 23.60070312 55.46296875 22.84765625 56.0234375 C21.93306641 56.50683594 21.93306641 56.50683594 21 57 C18 56 18 56 16.75390625 53.515625 C16.16416016 51.89914063 16.16416016 51.89914063 15.5625 50.25 C15.12679687 49.05761719 14.69109375 47.86523438 14.2421875 46.63671875 C12.79822838 42.40927867 11.50932219 38.15031221 10.2421875 33.8671875 C8.35474744 27.77364201 6.01444687 21.81873819 3.72924805 15.86547852 C1.72366996 10.51168195 0.44817038 5.70581091 0 0 Z " fill="#E4E4E4" transform="translate(140,61)"/>
<path d="M0 0 C1.26474051 3.79422154 0.55225342 4.80593231 -0.875 8.5 C-4.07013956 17.06225601 -6.92725102 25.72547014 -9.78857422 34.40429688 C-11.74635671 40.31926314 -13.77283114 46.18127054 -16 52 C-16.67735217 53.99640639 -17.34838935 55.99504414 -18 58 C-22.48686554 57.48721537 -24.56844668 55.83850791 -28 53 C-29.70041815 51.73925383 -31.40907769 50.48956178 -33.125 49.25 C-34.07246094 48.56421875 -35.01992187 47.8784375 -35.99609375 47.171875 C-36.98738281 46.45515625 -37.97867188 45.7384375 -39 45 C-41.06294099 43.50060655 -43.12546033 42.00063274 -45.1875 40.5 C-46.57001953 39.49453125 -46.57001953 39.49453125 -47.98046875 38.46875 C-48.64691406 37.9840625 -49.31335938 37.499375 -50 37 C-46.14553797 32.88510134 -42.01780791 29.74204818 -37.375 26.5625 C-30.04424435 21.4718764 -22.83668706 16.23593732 -15.68505859 10.89672852 C-10.56459769 7.09170212 -5.34053946 3.48934183 0 0 Z " fill="#E3E3E3" transform="translate(131,60)"/>
<path d="M0 0 C0.5775 0.226875 1.155 0.45375 1.75 0.6875 C1.42 1.6775 1.09 2.6675 0.75 3.6875 C-0.24 3.6875 -1.23 3.6875 -2.25 3.6875 C-4.13188425 4.77222646 -4.13188425 4.77222646 -6.06640625 6.29296875 C-7.19961304 7.14072876 -7.19961304 7.14072876 -8.35571289 8.00561523 C-9.16645264 8.62251221 -9.97719238 9.23940918 -10.8125 9.875 C-12.53065336 11.16225507 -14.2494186 12.4486938 -15.96875 13.734375 C-16.8453125 14.39244141 -17.721875 15.05050781 -18.625 15.72851562 C-22.6564841 18.73713062 -26.73091965 21.68487489 -30.8125 24.625 C-31.55749756 25.16237793 -32.30249512 25.69975586 -33.07006836 26.25341797 C-38.43006351 30.11299935 -43.8158712 33.93276277 -49.25 37.6875 C-46.04178662 41.12487148 -42.46247888 43.81776811 -38.625 46.5 C-38.00906982 46.9343335 -37.39313965 47.36866699 -36.75854492 47.81616211 C-35.51348407 48.69347801 -34.26732135 49.56923244 -33.02001953 50.44335938 C-31.41223785 51.57346358 -29.81303723 52.71575135 -28.21484375 53.859375 C-27.33957031 54.48328125 -26.46429688 55.1071875 -25.5625 55.75 C-24.79550781 56.29785156 -24.02851562 56.84570312 -23.23828125 57.41015625 C-21.18023504 58.84781887 -21.18023504 58.84781887 -18.25 59.6875 C-18.10304688 58.511875 -18.10304688 58.511875 -17.953125 57.3125 C-17.04176748 52.61394569 -15.5439097 48.21150501 -14 43.6875 C-13.68498535 42.75413818 -13.3699707 41.82077637 -13.04541016 40.85913086 C-10.53083913 33.4376272 -7.92018593 26.0544299 -5.25 18.6875 C-4.30987005 16.06343723 -3.37367501 13.4379759 -2.4375 10.8125 C-1.70833333 8.77083333 -0.97916667 6.72916667 -0.25 4.6875 C1.08333333 4.6875 2.41666667 4.6875 3.75 4.6875 C3.75 23.4975 3.75 42.3075 3.75 61.6875 C-25.58486239 61.6875 -25.58486239 61.6875 -39.25 49.6875 C-42.88 47.0475 -46.51 44.4075 -50.25 41.6875 C-50.58 55.5475 -50.91 69.4075 -51.25 83.6875 C-49.93 84.0175 -48.61 84.3475 -47.25 84.6875 C-47.91 85.6775 -48.57 86.6675 -49.25 87.6875 C-48.92 88.3475 -48.59 89.0075 -48.25 89.6875 C-50.23 89.3575 -52.21 89.0275 -54.25 88.6875 C-54.25 71.5275 -54.25 54.3675 -54.25 36.6875 C-53.26 36.6875 -52.27 36.6875 -51.25 36.6875 C-51.25 36.0275 -51.25 35.3675 -51.25 34.6875 C-49.57788086 33.39282227 -49.57788086 33.39282227 -47.27734375 31.94140625 C-42.6778195 28.97475353 -38.23629089 25.84603209 -33.8125 22.625 C-32.24874402 21.49082185 -30.68494044 20.35670932 -29.12109375 19.22265625 C-28.32429199 18.64402832 -27.52749023 18.06540039 -26.70654297 17.46923828 C-21.84122906 13.94041092 -16.96354681 10.4286745 -12.08813477 6.91381836 C-11.38100342 6.40343018 -10.67387207 5.89304199 -9.9453125 5.3671875 C-9.32672363 4.92101074 -8.70813477 4.47483398 -8.07080078 4.01513672 C-6.74077647 3.04534962 -5.44059051 2.03426249 -4.15966797 1.00048828 C-2.25 -0.3125 -2.25 -0.3125 0 0 Z " fill="#6E6E6E" transform="translate(131.25,58.3125)"/>
<path d="M0 0 C3.625 1.5 3.625 1.5 6 3 C6 2.34 6 1.68 6 1 C8.97 1 11.94 1 15 1 C15 12.55 15 24.1 15 36 C12.36 36 9.72 36 7 36 C7 35.01 7 34.02 7 33 C6.236875 33.495 5.47375 33.99 4.6875 34.5 C-0.31500466 36.53491715 -4.66639222 36.69257295 -10 36 C-14.68203946 33.91909357 -17.55097384 30.79240775 -20.08203125 26.41015625 C-22.10370304 21.10219244 -22.00694007 15.2577473 -20.3359375 9.8515625 C-16.0661107 1.34903784 -9.06253579 -1.42857707 0 0 Z " fill="#4C4C4C" transform="translate(359,104)"/>
<path d="M0 0 C0.99 0.515625 1.98 1.03125 3 1.5625 C3.66 1.8925 4.32 2.2225 5 2.5625 C4.34 6.5225 3.68 10.4825 3 14.5625 C1.8553125 13.6034375 1.8553125 13.6034375 0.6875 12.625 C-3.89188062 9.11059162 -7.4619509 9.38385325 -13 9.5625 C-14.21615968 10.60716109 -14.21615968 10.60716109 -14.5625 12.8125 C-14.28999767 15.58955858 -14.28999767 15.58955858 -12.4609375 16.86328125 C-9.7348961 18.56311015 -6.93706114 20.0767581 -4.0859375 21.5546875 C0.97045902 24.24994732 4.4102743 27.38304861 7 32.5625 C7.56735892 37.21298294 7.4598631 40.65980577 5.3125 44.875 C1.90721083 48.83249823 -1.4107362 52.30577413 -6.7578125 52.8359375 C-14.54949605 53.07095348 -18.83144513 52.40058225 -25 47.5625 C-24.67 43.9325 -24.34 40.3025 -24 36.5625 C-20 38.5625 -20 38.5625 -16.625 40.6875 C-13.29925315 42.60016128 -10.87771947 43.09127993 -7 42.5625 C-3.74118447 40.87856677 -3.74118447 40.87856677 -3.3125 37.75 C-3.66010069 34.60077267 -3.66010069 34.60077267 -5.4765625 33.26953125 C-7.6126741 31.95467371 -9.79719319 30.76204826 -12 29.5625 C-13.6158069 28.53898244 -15.22023495 27.49726985 -16.8125 26.4375 C-17.54082031 25.96054688 -18.26914063 25.48359375 -19.01953125 24.9921875 C-22.17524311 22.71409965 -23.75131713 21.30854862 -25 17.5625 C-25.54885106 12.8387819 -25.46596728 9.46115118 -23.25 5.1875 C-17.20399259 -1.86617531 -8.66964973 -3.73377772 0 0 Z " fill="#4E4E4E" transform="translate(248,88.4375)"/>
<path d="M0 0 C5.83637635 2.32490364 10.18082167 6.36164333 13 12 C13 14.97 13 17.94 13 21 C0.625 21.495 0.625 21.495 -12 22 C-10.5 26 -10.5 26 -8 27 C-5.89044938 27.19738723 -5.89044938 27.19738723 -3.5625 27.1875 C-2.38880859 27.20876953 -2.38880859 27.20876953 -1.19140625 27.23046875 C1.29205987 27.14086064 1.29205987 27.14086064 4 25 C4.99 25 5.98 25 7 25 C7.33 27.64 7.66 30.28 8 33 C2.07956545 37.2192889 -3.99002218 36.74136076 -11 36 C-16.71340972 33.34030927 -20.54714468 28.79000182 -23 23 C-23.74851927 17.10905614 -23.49233022 11.9568558 -20 7 C-13.61497742 0.71843843 -9.06689967 -1.08900684 0 0 Z " fill="#4F4F4F" transform="translate(476,104)"/>
<path d="M0 0 C3 1 3 1 4.10327148 2.97436523 C4.43915283 3.82716064 4.77503418 4.67995605 5.12109375 5.55859375 C5.49943359 6.50283203 5.87777344 7.44707031 6.26757812 8.41992188 C6.84668945 9.91362305 6.84668945 9.91362305 7.4375 11.4375 C7.81970703 12.39849609 8.20191406 13.35949219 8.59570312 14.34960938 C9.73953626 17.22958314 10.87005892 20.11455265 12 23 C13.93162367 27.88143606 15.88476159 32.75137335 17.921875 37.58984375 C18.22480469 38.31107422 18.52773438 39.03230469 18.83984375 39.77539062 C19.45874624 41.24561607 20.08127973 42.71431715 20.70703125 44.18164062 C23 49.66590571 23 49.66590571 23 53 C20.69 53 18.38 53 16 53 C14.35 48.38 12.7 43.76 11 39 C4.4 38.67 -2.2 38.34 -9 38 C-9.66 40.31 -10.32 42.62 -11 45 C-11.9422101 47.69264629 -12.97249986 50.33784054 -14 53 C-15.98 53 -17.96 53 -20 53 C-19.07588407 46.5173957 -17.37674278 41.27745424 -14.29296875 35.5078125 C-12.59304251 32.2106746 -11.29662751 28.804422 -9.9609375 25.34765625 C-9.1014873 23.24794255 -8.13908403 21.30633363 -7.0625 19.3125 C-3.89983104 13.2265673 -2.07033207 6.51645506 0 0 Z " fill="#555555" transform="translate(512,87)"/>
<path d="M0 0 C3.63 0 7.26 0 11 0 C13.64 5.28 16.28 10.56 19 16 C21.55820816 12.58905579 23.32943579 9.54870905 25.1875 5.75 C25.98220703 4.13351563 25.98220703 4.13351563 26.79296875 2.484375 C27.19128906 1.66453125 27.58960938 0.8446875 28 0 C31.3 0 34.6 0 38 0 C35.73078631 7.94224792 32.09663904 15.03261801 28.34814453 22.34765625 C26.75434057 25.48331113 25.18682107 28.63148276 23.62109375 31.78125 C23.03440918 32.96082275 22.44772461 34.14039551 21.84326172 35.35571289 C20.66283473 37.72937388 19.48371605 40.10367166 18.30517578 42.47827148 C17.76231934 43.56696533 17.21946289 44.65565918 16.66015625 45.77734375 C16.17168213 46.75952881 15.68320801 47.74171387 15.17993164 48.75366211 C14 51 14 51 13 52 C11.31391034 52.07205511 9.62499341 52.08386068 7.9375 52.0625 C7.01839844 52.05347656 6.09929687 52.04445312 5.15234375 52.03515625 C4.44207031 52.02355469 3.73179687 52.01195312 3 52 C4.98064864 45.15775925 8.30112149 38.8497317 11.9375 32.75 C13.38629575 29.00017571 12.47030211 27.73755059 11 24 C9.5568136 20.78453615 8.03576578 17.60961686 6.5 14.4375 C5.69651561 12.77020571 4.89439057 11.10225552 4.09375 9.43359375 C3.73990234 8.70197021 3.38605469 7.97034668 3.02148438 7.21655273 C1.92999962 4.84810386 0.9685317 2.42132926 0 0 Z " fill="#4C4C4C" transform="translate(256,105)"/>
<path d="M0 0 C4.86967297 1.73850129 7.76425627 4.34409153 10 9 C10.34057617 12.04614258 10.34057617 12.04614258 10.29296875 15.39453125 C10.2784668 17.19760742 10.2784668 17.19760742 10.26367188 19.03710938 C10.23853516 20.28298828 10.21339844 21.52886719 10.1875 22.8125 C10.16719727 24.71032227 10.16719727 24.71032227 10.14648438 26.64648438 C10.11118318 29.76475643 10.06186819 32.88216042 10 36 C6.7 36 3.4 36 0 36 C-0.04898437 34.37449219 -0.09796875 32.74898437 -0.1484375 31.07421875 C-0.22346565 28.94529508 -0.29901346 26.81638968 -0.375 24.6875 C-0.4059375 23.61564453 -0.436875 22.54378906 -0.46875 21.43945312 C-0.50742187 20.41142578 -0.54609375 19.38339844 -0.5859375 18.32421875 C-0.6173584 17.37635498 -0.6487793 16.42849121 -0.68115234 15.4519043 C-0.8489051 12.7469731 -0.8489051 12.7469731 -3 10 C-6.5 9.5 -6.5 9.5 -10 10 C-12.19164944 13.28747416 -12.28679386 14.48494825 -12.4140625 18.32421875 C-12.47207031 19.86625977 -12.47207031 19.86625977 -12.53125 21.43945312 C-12.5621875 22.51130859 -12.593125 23.58316406 -12.625 24.6875 C-12.68300781 26.31268555 -12.68300781 26.31268555 -12.7421875 27.97070312 C-12.83650116 30.64685334 -12.91934126 33.32340342 -13 36 C-16.3 36 -19.6 36 -23 36 C-23 24.45 -23 12.9 -23 1 C-20.03 1 -17.06 1 -14 1 C-13.67 1.66 -13.34 2.32 -13 3 C-12.525625 2.505 -12.05125 2.01 -11.5625 1.5 C-7.73899934 -0.73814673 -4.32702379 -0.65671525 0 0 Z " fill="#4D4D4D" transform="translate(322,104)"/>
<path d="M0 0 C6.7472505 4.29370487 13.19569154 8.47301615 19.5 13.3125 C20.86409696 14.35089965 22.22866132 15.38868567 23.59375 16.42578125 C24.47063477 17.09734253 24.47063477 17.09734253 25.36523438 17.7824707 C26.8735763 18.90584305 28.43515675 19.95677117 30 21 C28.82989572 24.51031284 28.02863674 24.93505103 25.02734375 26.92578125 C23.80047852 27.75045898 23.80047852 27.75045898 22.54882812 28.59179688 C21.68708984 29.15962891 20.82535156 29.72746094 19.9375 30.3125 C18.2579128 31.43179247 16.57951593 32.5528733 14.90234375 33.67578125 C14.08233887 34.22314941 13.26233398 34.77051758 12.41748047 35.33447266 C9.38878597 37.42109696 6.48333908 39.64557662 3.59594727 41.92260742 C2 43 2 43 0 43 C0 28.81 0 14.62 0 0 Z " fill="#E3E3E3" transform="translate(80,99)"/>
<path d="M0 0 C0 13.53 0 27.06 0 41 C-3.99250186 40.00187453 -6.01876163 38.84750065 -9.375 36.5625 C-10.41914063 35.85222656 -11.46328125 35.14195312 -12.5390625 34.41015625 C-18.40837282 30.34246901 -24.21013723 26.17966425 -30 22 C-28.66587886 17.99763658 -26.806736 17.25996567 -23.3125 14.9375 C-22.13453195 14.14715036 -20.95748185 13.35543122 -19.78125 12.5625 C-18.85699219 11.94181641 -18.85699219 11.94181641 -17.9140625 11.30859375 C-15.94999482 9.96581278 -14.01903162 8.58525446 -12.09375 7.1875 C-11.46170654 6.72867432 -10.82966309 6.26984863 -10.1784668 5.79711914 C-8.94852517 4.90093375 -7.72076374 4.00174742 -6.49536133 3.09936523 C-2.21933388 0 -2.21933388 0 0 0 Z " fill="#E4E4E4" transform="translate(191,100)"/>
<path d="M0 0 C3.88463681 2.25466905 7.54908877 4.74834231 11.1875 7.375 C11.78409424 7.80345215 12.38068848 8.2319043 12.99536133 8.67333984 C14.99858498 10.11324482 16.99944185 11.55639426 19 13 C19.73605469 13.53044922 20.47210938 14.06089844 21.23046875 14.60742188 C46.86649023 33.0836377 46.86649023 33.0836377 50.0390625 35.6484375 C52.18072668 37.29370882 52.18072668 37.29370882 56 38 C56 55.49 56 72.98 56 91 C55.67 91 55.34 91 55 91 C55 73.84 55 56.68 55 39 C54.34 39 53.68 39 53 39 C53.16200394 39.56831039 53.32400787 40.13662079 53.49092102 40.72215271 C54.00914493 43.04091853 54.13342101 45.0727839 54.14526367 47.44555664 C54.15164352 48.31648453 54.15802338 49.18741241 54.16459656 50.08473206 C54.16570938 51.01712204 54.1668222 51.94951202 54.16796875 52.91015625 C54.17296135 54.355933 54.17296135 54.355933 54.17805481 55.83091736 C54.18311189 57.86587039 54.18546351 59.9008317 54.18530273 61.93579102 C54.18749426 65.05433698 54.20567669 68.17253199 54.22460938 71.29101562 C54.22754249 73.26822796 54.22952783 75.24544197 54.23046875 77.22265625 C54.23765427 78.15707047 54.24483978 79.09148468 54.25224304 80.05421448 C54.24916641 80.9219902 54.24608978 81.78976593 54.24291992 82.68383789 C54.24434494 83.44676651 54.24576996 84.20969513 54.24723816 84.9957428 C54 87 54 87 52 90 C51.14341797 89.29037109 51.14341797 89.29037109 50.26953125 88.56640625 C44.36922021 83.75422888 38.29065404 79.34178075 32.0078125 75.0546875 C28.63549094 72.75099771 25.31269657 70.38822311 22 68 C22.33 67.34 22.66 66.68 23 66 C25.96598102 67.40289104 28.609609 69.02438196 31.30078125 70.8984375 C32.11353516 71.46046875 32.92628906 72.0225 33.76367188 72.6015625 C35.45133187 73.77581175 37.13883411 74.95028777 38.82617188 76.125 C40.05110352 76.97191406 40.05110352 76.97191406 41.30078125 77.8359375 C42.03466064 78.34688965 42.76854004 78.8578418 43.5246582 79.38427734 C46.59915736 81.39108624 49.81225538 83.17843165 53 85 C53 71.47 53 57.94 53 44 C39.3857254 53.34859119 39.3857254 53.34859119 26 63 C25.01 62.34 24.02 61.68 23 61 C23.45737549 60.67837891 23.91475098 60.35675781 24.38598633 60.02539062 C33.30633367 53.74947695 42.20857044 47.45590939 51 41 C47.31637841 36.94801625 43.25033308 33.97106131 38.73828125 30.8828125 C35.97931454 28.9857769 33.26726059 27.03593047 30.5625 25.0625 C29.6446875 24.39347656 28.726875 23.72445312 27.78125 23.03515625 C25.94561314 21.69194444 24.11222728 20.34565028 22.28125 18.99609375 C15.64686646 14.12515986 8.88106783 9.51532549 2 5 C4.83088185 15.38443678 8.20305728 25.41273784 12.11157227 35.44189453 C14.7385031 42.21300815 17.05986444 48.99578178 19 56 C19.23847656 56.68964844 19.47695312 57.37929687 19.72265625 58.08984375 C20.08881535 60.61170012 19.29709099 61.86361484 18 64 C17.8040625 63.31679687 17.608125 62.63359375 17.40625 61.9296875 C14.9776818 53.74373778 12.14883151 45.74766714 9.16992188 37.74755859 C5.89245891 28.8888849 2.9942683 19.9828049 0 11 C-0.33 28.49 -0.66 45.98 -1 64 C-1.33 64 -1.66 64 -2 64 C-2 44.86 -2 25.72 -2 6 C-1.34 6 -0.68 6 0 6 C0 4.02 0 2.04 0 0 Z " fill="#717171" transform="translate(138,56)"/>
<path d="M0 0 C-0.33 2.97 -0.66 5.94 -1 9 C-5.875 7.125 -5.875 7.125 -7 6 C-9.33297433 5.95907063 -11.66705225 5.95758277 -14 6 C-14 6.99 -14 7.98 -14 9 C-13.34773438 9.23074219 -12.69546875 9.46148437 -12.0234375 9.69921875 C-6.50912714 11.75691863 -1.94036412 13.54116692 2 18 C2.79380648 22.36593564 2.3211758 24.39206009 0.25 28.3125 C-2.69547292 31.83070376 -4.48095724 32.85061776 -9.05859375 33.30078125 C-10.17363281 33.30464844 -11.28867187 33.30851562 -12.4375 33.3125 C-13.54996094 33.32925781 -14.66242188 33.34601563 -15.80859375 33.36328125 C-19.28492148 32.96756708 -21.17159635 32.00367286 -24 30 C-23.505 25.545 -23.505 25.545 -23 21 C-20 21 -20 21 -18.3125 22.4375 C-14.95645932 24.70509505 -12.01332372 24.66555636 -8 25 C-8.13238501 23.03772377 -8.13238501 23.03772377 -9 21 C-11.14620886 19.85582076 -11.14620886 19.85582076 -13.75 19.125 C-18.86077481 17.24323907 -21.22199387 15.72261043 -24 11 C-24.6633439 6.79882196 -24.50468298 4.84113829 -22.3125 1.1875 C-15.55696194 -5.20287384 -7.64343521 -3.8217176 0 0 Z " fill="#505050" transform="translate(447,107)"/>
<path d="M0 0 C6.6 0 13.2 0 20 0 C20 18.15 20 36.3 20 55 C19.34 55 18.68 55 18 55 C17.81824219 54.3709375 17.63648438 53.741875 17.44921875 53.09375 C17.19785156 52.2378125 16.94648438 51.381875 16.6875 50.5 C16.32205078 49.24703125 16.32205078 49.24703125 15.94921875 47.96875 C14.99832857 44.99477248 13.91688892 42.08502266 12.81559753 39.1640625 C10.72858327 33.62649143 8.68600545 28.07238232 6.64672852 22.51708984 C6.08761397 20.99764658 5.52606375 19.4790975 4.9621582 17.96142578 C4.14183764 15.75252321 3.32986595 13.5407072 2.51953125 11.328125 C2.26645706 10.65203186 2.01338287 9.97593872 1.75263977 9.27935791 C0.53641131 5.93206686 0 3.61962309 0 0 Z " fill="#DCDCDC" transform="translate(115,122)"/>
<path d="M0 0 C2.7917273 3.72230307 3.87575189 6.06071145 5.26953125 10.390625 C5.47129471 11.00823196 5.67305817 11.62583893 5.88093567 12.26216125 C6.53138206 14.25603328 7.17190387 16.25294411 7.8125 18.25 C8.69722675 20.97416805 9.58776671 23.69640472 10.48046875 26.41796875 C10.69771606 27.08171005 10.91496338 27.74545135 11.13879395 28.42930603 C13.21583569 34.73529336 15.55514883 40.9115152 18.0390625 47.06640625 C19 50 19 50 19 55 C12.73 55 6.46 55 0 55 C0 36.85 0 18.7 0 0 Z " fill="#E2E2E2" transform="translate(137,65)"/>
<path d="M0 0 C6.6 0 13.2 0 20 0 C19.01 2.97 18.02 5.94 17 9 C16.02966239 11.92281874 16.02966239 11.92281874 15.05993652 14.84584045 C14.12071725 17.67715685 13.17973929 20.50788801 12.23876953 23.33862305 C11.74572083 24.8228202 11.25320891 26.30719578 10.76123047 27.79174805 C10.04018493 29.96711796 9.31714733 32.14181743 8.59375 34.31640625 C8.37803345 34.96871719 8.16231689 35.62102814 7.94006348 36.29310608 C5.83514645 42.60861308 3.50583989 48.83177874 1 55 C0.67 55 0.34 55 0 55 C0 36.85 0 18.7 0 0 Z " fill="#E2E2E2" transform="translate(137,122)"/>
<path d="M0 0 C0.33 0 0.66 0 1 0 C1 17.49 1 34.98 1 53 C-5.27 53 -11.54 53 -18 53 C-17.34085564 49.04513385 -16.74973264 45.87186128 -15.51171875 42.171875 C-15.21716797 41.28886719 -14.92261719 40.40585938 -14.61914062 39.49609375 C-14.31169922 38.58988281 -14.00425781 37.68367188 -13.6875 36.75 C-13.39166016 35.85925781 -13.09582031 34.96851563 -12.79101562 34.05078125 C-10.99858709 28.71608033 -9.0156002 23.49751883 -6.89477539 18.28564453 C-5.29600109 14.20168137 -4.14394259 9.9949084 -2.9296875 5.78515625 C-2 3 -2 3 0 0 Z " fill="#E3E3E3" transform="translate(133,67)"/>
<path d="M0 0 C2.31 0 4.62 0 7 0 C7 17.16 7 34.32 7 52 C4.69 52 2.38 52 0 52 C0 34.84 0 17.68 0 0 Z " fill="#585858" transform="translate(544,88)"/>
<path d="M0 0 C2.7871087 1.3631274 3.86518898 2.55277761 6 5 C6.91361711 9.56808554 6.36683783 11.39971992 3.9375 15.375 C0.4323465 18.50726483 -1.32075704 19.16711582 -6 19 C-8.875 17.625 -8.875 17.625 -11 15 C-12.07522087 11.1629373 -12.61069718 7.62852583 -11.19140625 3.84375 C-8.31882049 -0.6016942 -4.8585829 -0.57644204 0 0 Z " fill="#E0E0E0" transform="translate(359,113)"/>
<path d="M0 0 C2.5 0.9375 2.5 0.9375 4 3 C4.95069985 6.0646784 5.35349253 8.80173424 5 12 C2.625 15 2.625 15 0 17 C-0.33 17.33 -0.66 17.66 -1 18 C-4.85303968 18.43784542 -6.54122122 18.30585252 -9.8125 16.125 C-12 14 -12 14 -13 12 C-12.984375 9.94140625 -12.984375 9.94140625 -12.75 7.5625 C-12.68296875 6.78003906 -12.6159375 5.99757813 -12.546875 5.19140625 C-10.92943763 -1.28989636 -5.57155324 -0.69518476 0 0 Z " fill="#E0E0E0" transform="translate(404,114)"/>
<path d="M0 0 C0.33 0.99 0.66 1.98 1 3 C1.99 3 2.98 3 4 3 C4 2.34 4 1.68 4 1 C10.6 1 17.2 1 24 1 C24 1.33 24 1.66 24 2 C17.73 2 11.46 2 5 2 C8.59204148 13.07091204 12.26565794 24.0676068 16.60180664 34.87255859 C21.88176767 48.06695958 21.88176767 48.06695958 23 55 C22.01 55 21.02 55 20 55 C14.99648839 42.57192277 10.89122149 29.85449055 6.734375 17.125 C6.38890625 16.073125 6.0434375 15.02125 5.6875 13.9375 C5.40261719 13.05964844 5.11773437 12.18179688 4.82421875 11.27734375 C4.02985922 9.08250202 3.09033048 7.06162925 2 5 C-1.47583153 6.27039516 -4.27828583 7.73473163 -7.25 9.93359375 C-8.0234375 10.50013672 -8.796875 11.06667969 -9.59375 11.65039062 C-10.3878125 12.24013672 -11.181875 12.82988281 -12 13.4375 C-21.625 20.5390625 -21.625 20.5390625 -26 23 C-26.66 22.34 -27.32 21.68 -28 21 C-25.18956999 18.95547239 -22.37627004 16.91492785 -19.5625 14.875 C-18.77939453 14.30523437 -17.99628906 13.73546875 -17.18945312 13.1484375 C-12.45091277 9.71640827 -7.65972853 6.41888461 -2.73022461 3.26611328 C-0.8590495 2.09952723 -0.8590495 2.09952723 0 0 Z " fill="#646464" transform="translate(110,120)"/>
<path d="M0 0 C0 2.31 0 4.62 0 7 C-0.66 7 -1.32 7 -2 7 C-2 26.14 -2 45.28 -2 65 C4.93 65 11.86 65 19 65 C19.33 63.68 19.66 62.36 20 61 C21.65 61.66 23.3 62.32 25 63 C23.73058503 66.91402949 22.48832306 68.79072873 19 71 C19 69.68 19 68.36 19 67 C18.11199707 67.00785522 18.11199707 67.00785522 17.20605469 67.01586914 C3.4319745 67.12070077 -10.25113524 66.84330386 -24 66 C-24 66.66 -24 67.32 -24 68 C-24.99 68 -25.98 68 -27 68 C-27.33 66.68 -27.66 65.36 -28 64 C-19.75 64.33 -11.5 64.66 -3 65 C-3.33 46.52 -3.66 28.04 -4 9 C-4.66 9.66 -5.32 10.32 -6 11 C-5.67 8.69 -5.34 6.38 -5 4 C-5.66 4 -6.32 4 -7 4 C-6.67 3.01 -6.34 2.02 -6 1 C-4 0 -4 0 0 0 Z " fill="#545454" transform="translate(138,55)"/>
<path d="M0 0 C1.33333333 0 2.66666667 0 4 0 C4 18.81 4 37.62 4 57 C3.67 57 3.34 57 3 57 C2.67 40.17 2.34 23.34 2 6 C0.0778232 11.12580481 -1.74846606 16.18052841 -3.4375 21.375 C-5.4016319 27.35007247 -7.58277581 33.19443973 -10 39 C-10.66868883 40.66585638 -11.33585629 42.33232636 -12 44 C-12.66 44 -13.32 44 -14 44 C-14.33 44.66 -14.66 45.32 -15 46 C-14.38476292 42.6495925 -13.5739951 39.49311623 -12.4765625 36.26953125 C-12.1775 35.38330078 -11.8784375 34.49707031 -11.5703125 33.58398438 C-11.25835937 32.66939453 -10.94640625 31.75480469 -10.625 30.8125 C-8.80457713 25.45536574 -7.00966266 20.10367257 -5.41015625 14.67578125 C-4.37123718 11.16336093 -3.2158275 7.76234224 -1.8125 4.375 C-1.46832031 3.53710938 -1.12414062 2.69921875 -0.76953125 1.8359375 C-0.51558594 1.23007813 -0.26164063 0.62421875 0 0 Z " fill="#8D8D8D" transform="translate(131,63)"/>
<path d="M0 0 C0.66 0 1.32 0 2 0 C2.04938976 6.21133256 2.08571476 12.42255112 2.10986328 18.6340332 C2.11992894 20.74766022 2.13358257 22.8612733 2.15087891 24.97485352 C2.1751023 28.01061442 2.18647738 31.04619143 2.1953125 34.08203125 C2.20563507 35.02899368 2.21595764 35.97595612 2.22659302 36.95161438 C2.22681961 38.27264412 2.22681961 38.27264412 2.22705078 39.62036133 C2.231492 40.39535477 2.23593323 41.17034821 2.24050903 41.96882629 C2 44 2 44 0 47 C-0.57105469 46.52691406 -1.14210937 46.05382812 -1.73046875 45.56640625 C-7.63077979 40.75422888 -13.70934596 36.34178075 -19.9921875 32.0546875 C-23.36450906 29.75099771 -26.68730343 27.38822311 -30 25 C-29.67 24.34 -29.34 23.68 -29 23 C-26.03401898 24.40289104 -23.390391 26.02438196 -20.69921875 27.8984375 C-19.88646484 28.46046875 -19.07371094 29.0225 -18.23632812 29.6015625 C-16.54866813 30.77581175 -14.86116589 31.95028777 -13.17382812 33.125 C-12.35720703 33.68960938 -11.54058594 34.25421875 -10.69921875 34.8359375 C-9.96533936 35.34688965 -9.23145996 35.8578418 -8.4753418 36.38427734 C-5.40084264 38.39108624 -2.18774462 40.17843165 1 42 C0.505 21.21 0.505 21.21 0 0 Z " fill="#7C7C7C" transform="translate(190,99)"/>
<path d="M0 0 C0.66 0.99 1.32 1.98 2 3 C1.23804246 5.84401436 0.36137277 8.44729584 -0.6875 11.1875 C-1.34036697 12.96677922 -1.99126064 14.74678323 -2.640625 16.52734375 C-3.00994141 17.5313623 -3.37925781 18.53538086 -3.75976562 19.56982422 C-5.97732138 25.70302469 -8.07438394 31.87790771 -10.18447876 38.04873657 C-11.17267611 40.9374767 -12.16442901 43.82499061 -13.15618896 46.71250916 C-14.10485215 49.47475702 -15.05243883 52.23737394 -16 55 C-18.04003906 51.27832031 -18.04003906 51.27832031 -17.6796875 48.7734375 C-17.41414062 47.98195312 -17.14859375 47.19046875 -16.875 46.375 C-16.62492188 45.59898437 -16.37484375 44.82296875 -16.1171875 44.0234375 C-15.171962 41.46537968 -14.16754077 38.94986666 -13.13671875 36.42578125 C-10.80513198 30.63879581 -8.86513871 24.74398175 -6.9375 18.8125 C-4.85891279 12.41836982 -2.78149944 6.12623085 0 0 Z " fill="#696969" transform="translate(156,124)"/>
<path d="M0 0 C8.58 0 17.16 0 26 0 C26 0.33 26 0.66 26 1 C24.35 1.33 22.7 1.66 21 2 C21 3.65 21 5.3 21 7 C20.67 6.01 20.34 5.02 20 4 C19.195625 4.495 18.39125 4.99 17.5625 5.5 C13.1962542 7.33841929 9.67409863 7.65757281 5 7 C2.5 5.75 2.5 5.75 1 4 C0.67 2.68 0.34 1.36 0 0 Z " fill="#DCDCDC" transform="translate(463,125)"/>
<path d="M0 0 C0.66 0 1.32 0 2 0 C2.84442881 1.89091736 3.67511587 3.78797515 4.5 5.6875 C4.9640625 6.74324219 5.428125 7.79898438 5.90625 8.88671875 C7 12 7 12 7 17 C3.04 17 -0.92 17 -5 17 C-4.20514017 13.02570087 -3.23700354 9.50217167 -1.9375 5.6875 C-1.57527344 4.61886719 -1.21304687 3.55023438 -0.83984375 2.44921875 C-0.56269531 1.64097656 -0.28554688 0.83273438 0 0 Z " fill="#DEDEDE" transform="translate(512,102)"/>
<path d="M0 0 C7.76703184 5.12173839 15.42458929 10.38662102 22.9375 15.875 C25.84363962 18.10400091 25.84363962 18.10400091 29 19 C29.0825 18.113125 29.165 17.22625 29.25 16.3125 C30.0934086 12.58744536 31.45552764 10.79071162 34 8 C33.71517632 9.41805831 33.42181856 10.83440379 33.125 12.25 C32.96257812 13.03890625 32.80015625 13.8278125 32.6328125 14.640625 C32.00849925 16.96831144 31.15161458 18.89031952 30 21 C22.91858436 20.818914 18.88680418 17.44677546 13.4375 13.1875 C11.79118437 11.92991566 10.14406742 10.67337955 8.49609375 9.41796875 C7.7263623 8.82677246 6.95663086 8.23557617 6.16357422 7.62646484 C3.50987827 5.63155146 0.7912071 3.79596307 -2 2 C-1.34 1.34 -0.68 0.68 0 0 Z " fill="#656565" transform="translate(84,99)"/>
<path d="M0 0 C2 3 2 3 1.61621094 5.12890625 C1.32520508 5.93199219 1.03419922 6.73507813 0.734375 7.5625 C0.26451172 8.88121094 0.26451172 8.88121094 -0.21484375 10.2265625 C-0.55644531 11.14179688 -0.89804688 12.05703125 -1.25 13 C-1.57613281 13.91523438 -1.90226563 14.83046875 -2.23828125 15.7734375 C-3.58891564 19.50271951 -4.78872539 22.68308808 -7 26 C-7.66 26 -8.32 26 -9 26 C-6.56696874 17.12157015 -3.29163506 8.58594775 0 0 Z " fill="#737373" transform="translate(156,124)"/>
<path d="M0 0 C2.86466214 0.0677102 4.05137626 0.27200694 6.625 1.6875 C8.125 3.3125 8.125 3.3125 8.125 5.3125 C3.175 5.6425 -1.775 5.9725 -6.875 6.3125 C-5.5830189 1.14457561 -5.34461955 0.43101771 0 0 Z " fill="#DBDBDB" transform="translate(469.875,111.6875)"/>
<path d="M0 0 C2 2 2 2 4 5 C5.32 4.67 6.64 4.34 8 4 C7.67 5.98 7.34 7.96 7 10 C7.66 10 8.32 10 9 10 C8.67 10.99 8.34 11.98 8 13 C6.35 13.33 4.7 13.66 3 14 C2 11 2 11 1.5 8.375 C1.23747474 6.05538548 1.23747474 6.05538548 0 5 C-0.04063832 3.33382885 -0.042721 1.66611905 0 0 Z " fill="#4F4F4F" transform="translate(131,173)"/>
<path d="M0 0 C0.66 0 1.32 0 2 0 C2.18175781 0.65226563 2.36351563 1.30453125 2.55078125 1.9765625 C3.71030423 6.0081347 4.84021695 9.68614044 6.75 13.4375 C8 16 8 16 7 19 C6.34 19 5.68 19 5 19 C4.18243762 16.93950145 3.37115266 14.87651147 2.5625 12.8125 C1.88380859 11.08966797 1.88380859 11.08966797 1.19140625 9.33203125 C0.18607682 6.520405 -0.6162867 3.95621371 -1 1 C-0.67 0.67 -0.34 0.34 0 0 Z " fill="#6A6A6A" transform="translate(125,156)"/>
<path d="M0 0 C0.99 0.33 1.98 0.66 3 1 C-0.38671504 4.66038898 -4.18600451 7.40850722 -8.25 10.25 C-8.8996875 10.70890625 -9.549375 11.1678125 -10.21875 11.640625 C-11.81004999 12.76389558 -13.40469095 13.88243056 -15 15 C-15.99 14.34 -16.98 13.68 -18 13 C-17.49025635 12.64172119 -16.9805127 12.28344238 -16.45532227 11.91430664 C-14.15699741 10.29805514 -11.85973648 8.68029803 -9.5625 7.0625 C-8.35883789 6.21655273 -8.35883789 6.21655273 -7.13085938 5.35351562 C-6.36708984 4.81533203 -5.60332031 4.27714844 -4.81640625 3.72265625 C-3.75595093 2.97640991 -3.75595093 2.97640991 -2.67407227 2.21508789 C-1.05303063 1.10532955 -1.05303063 1.10532955 0 0 Z " fill="#656565" transform="translate(179,104)"/>
<path d="M0 0 C0.33 0.99 0.66 1.98 1 3 C1.99 3 2.98 3 4 3 C4 2.34 4 1.68 4 1 C10.6 1 17.2 1 24 1 C24 1.33 24 1.66 24 2 C17.73 2 11.46 2 5 2 C4.67 3.98 4.34 5.96 4 8 C3.34 7.01 2.68 6.02 2 5 C-1.54518884 6.39759905 -1.54518884 6.39759905 -5 8 C-5.66 7.34 -6.32 6.68 -7 6 C-6.030625 5.38125 -5.06125 4.7625 -4.0625 4.125 C-0.97164638 2.34321154 -0.97164638 2.34321154 0 0 Z " fill="#6B6B6B" transform="translate(110,120)"/>
<path d="M0 0 C2.98718234 3.44404552 4.34989524 7.23340856 5.75 11.5 C5.98332031 12.16386719 6.21664062 12.82773438 6.45703125 13.51171875 C7.61347189 16.98104067 8.45142262 19.53074593 7 23 C3.66597391 15.79179833 0.80172317 8.4291594 -2 1 C-1.34 0.67 -0.68 0.34 0 0 Z " fill="#616161" transform="translate(138,61)"/>
<path d="M0 0 C0 2.31 0 4.62 0 7 C-1.32 7 -2.64 7 -4 7 C-4.66 8.32 -5.32 9.64 -6 11 C-5.67 8.69 -5.34 6.38 -5 4 C-5.66 4 -6.32 4 -7 4 C-6.67 3.01 -6.34 2.02 -6 1 C-4 0 -4 0 0 0 Z " fill="#4F4F4F" transform="translate(138,55)"/>
<path d="M0 0 C13.365 0.495 13.365 0.495 27 1 C27 1.66 27 2.32 27 3 C15.615 2.505 15.615 2.505 4 2 C4 2.66 4 3.32 4 4 C3.01 4 2.02 4 1 4 C0.67 2.68 0.34 1.36 0 0 Z " fill="#484848" transform="translate(110,119)"/>
<path d="M0 0 C3.14624993 -0.26218749 4.61837017 -0.24754367 7.3125 1.5 C8.1478125 2.2425 8.1478125 2.2425 9 3 C9.66 2.34 10.32 1.68 11 1 C11.625 3.375 11.625 3.375 12 6 C11.34 6.66 10.68 7.32 10 8 C8.33055479 6.85821872 6.6645052 5.71147095 5 4.5625 C4.071875 3.92441406 3.14375 3.28632813 2.1875 2.62890625 C1.465625 2.09136719 0.74375 1.55382812 0 1 C0 0.67 0 0.34 0 0 Z " fill="#6A6A6A" transform="translate(122,178)"/>
<path d="M0 0 C1.16161779 2.86578759 0.9946154 4.01630163 0.00390625 7.015625 C-0.70958984 8.61664063 -0.70958984 8.61664063 -1.4375 10.25 C-1.91058594 11.32765625 -2.38367188 12.4053125 -2.87109375 13.515625 C-3.24363281 14.33546875 -3.61617187 15.1553125 -4 16 C-5.20655614 12.51799235 -4.78332187 10.35462394 -3.6875 6.875 C-3.42324219 6.00617188 -3.15898437 5.13734375 -2.88671875 4.2421875 C-2 2 -2 2 0 0 Z " fill="#616161" transform="translate(148,149)"/>
<path d="M0 0 C2.36568151 2.87880116 3.71193916 5.44350784 4.8125 9 C5.08707031 9.845625 5.36164063 10.69125 5.64453125 11.5625 C6.06283466 14.43086626 5.53187852 15.59355811 4 18 C3.32451422 15.94037148 2.65995688 13.87715678 2 11.8125 C1.62875 10.66394531 1.2575 9.51539062 0.875 8.33203125 C0.09369447 5.35679188 -0.18363306 3.04716104 0 0 Z " fill="#646464" transform="translate(152,102)"/>
<path d="M0 0 C3.53372712 1.96318174 6.24479785 4.04070881 9 7 C8.01 7.495 8.01 7.495 7 8 C4.375 6.5625 4.375 6.5625 2 5 C1.67 5.99 1.34 6.98 1 8 C0.67 5.36 0.34 2.72 0 0 Z " fill="#737373" transform="translate(138,56)"/>
<path d="M0 0 C0.57234375 0.22558594 1.1446875 0.45117188 1.734375 0.68359375 C1.404375 1.67359375 1.074375 2.66359375 0.734375 3.68359375 C-0.255625 3.68359375 -1.245625 3.68359375 -2.265625 3.68359375 C-4.3017132 4.96113929 -6.30671619 6.29059193 -8.265625 7.68359375 C-8.925625 7.02359375 -9.585625 6.36359375 -10.265625 5.68359375 C-9.02827516 4.64746342 -7.77517863 3.63011573 -6.515625 2.62109375 C-5.81953125 2.05261719 -5.1234375 1.48414063 -4.40625 0.8984375 C-2.265625 -0.31640625 -2.265625 -0.31640625 0 0 Z " fill="#6F6F6F" transform="translate(131.265625,58.31640625)"/>
<path d="M0 0 C2 3 2 3 1.75 4.75 C1.5025 5.4925 1.255 6.235 1 7 C0.649375 8.2375 0.29875 9.475 -0.0625 10.75 C-0.5265625 12.35875 -0.5265625 12.35875 -1 14 C-1.66 14 -2.32 14 -3 14 C-2.58846263 9.02906176 -2.20399168 4.55491614 0 0 Z " fill="#686868" transform="translate(131,63)"/>
<path d="M0 0 C5.35048061 0.37328935 7.50912907 1.9957657 11 6 C6.89791983 6 6.29921062 5.86243878 3.25 3.5625 C2.63640625 3.11003906 2.0228125 2.65757813 1.390625 2.19140625 C0.93171875 1.79824219 0.4728125 1.40507813 0 1 C0 0.67 0 0.34 0 0 Z " fill="#6E6E6E" transform="translate(99,112)"/>
<path d="M0 0 C2 3 2 3 1.609375 4.97265625 C1.32578125 5.66230469 1.0421875 6.35195312 0.75 7.0625 C0.34007812 8.10083984 0.34007812 8.10083984 -0.078125 9.16015625 C-1 11 -1 11 -3 13 C-3.38281159 7.76824163 -2.21854707 4.62197306 0 0 Z " fill="#696969" transform="translate(156,124)"/>
<path d="M0 0 C0.66 0.99 1.32 1.98 2 3 C1.125 6.6875 1.125 6.6875 0 10 C-0.66 10 -1.32 10 -2 10 C-2.33 10.66 -2.66 11.32 -3 12 C-2.25749403 7.91621717 -1.17076699 3.98060777 0 0 Z " fill="#747474" transform="translate(119,97)"/>
<path d="M0 0 C0.66 0 1.32 0 2 0 C3.83691257 3.78187881 4.15837626 5.94568308 3 10 C0.70366176 6.55549263 0.45983515 4.06187717 0 0 Z " fill="#6B6B6B" transform="translate(149,94)"/>
<path d="M0 0 C1.39195915 4.17587745 -0.17676781 6.13474776 -2 10 C-2.33 10 -2.66 10 -3 10 C-2.88637738 8.5199159 -2.75877092 7.04089926 -2.625 5.5625 C-2.55539063 4.73878906 -2.48578125 3.91507812 -2.4140625 3.06640625 C-2.27742188 2.38449219 -2.14078125 1.70257813 -2 1 C-1.34 0.67 -0.68 0.34 0 0 Z " fill="#636363" transform="translate(123,90)"/>
<path d="M0 0 C1.9451 2.91765 2.45276317 4.62537285 3 8 C2.01 8 1.02 8 0 8 C-1.0625 6.1875 -1.0625 6.1875 -2 4 C-1 1 -1 1 0 0 Z " fill="#767676" transform="translate(130,167)"/>
<path d="M0 0 C3.36591866 1.44253657 5.51047079 3.33264727 8 6 C3.68607774 5.5206753 1.83430453 4.2542015 -1 1 C-0.67 0.67 -0.34 0.34 0 0 Z " fill="#606060" transform="translate(161,122)"/>
<path d="M0 0 C-2.64 1.98 -5.28 3.96 -8 6 C-8 4.68 -8 3.36 -8 2 C-3.82258065 -1.27419355 -3.82258065 -1.27419355 0 0 Z " fill="#616161" transform="translate(88,91)"/>
<path d="M0 0 C3.87132028 0.57352893 6.08172796 2.48704352 9 5 C8.01 5.33 7.02 5.66 6 6 C2.8125 4.1875 2.8125 4.1875 0 2 C0 1.34 0 0.68 0 0 Z " fill="#686868" transform="translate(175,84)"/>
<path d="M0 0 C0.66 0.33 1.32 0.66 2 1 C2 1.66 2 2.32 2 3 C0.25 4.6875 0.25 4.6875 -2 6 C-4.25 5.6875 -4.25 5.6875 -6 5 C-4.73775586 2.47551173 -3.49988984 2.17182336 -1 1 C-0.67 0.67 -0.34 0.34 0 0 Z " fill="#6B6B6B" transform="translate(144,178)"/>
<path d="M0 0 C0.66 0 1.32 0 2 0 C3.42944945 2.35438733 4.08661261 3.48032433 3.625 6.25 C3.41875 6.8275 3.2125 7.405 3 8 C2.34 7.01 1.68 6.02 1 5 C0.01 5.495 0.01 5.495 -1 6 C-0.67 4.02 -0.34 2.04 0 0 Z " fill="#B6B6B6" transform="translate(512,102)"/>
<path d="M0 0 C0.66 0.33 1.32 0.66 2 1 C1 4 1 4 -1.0625 5.1875 C-1.701875 5.455625 -2.34125 5.72375 -3 6 C-3.66 5.34 -4.32 4.68 -5 4 C-3.35 2.68 -1.7 1.36 0 0 Z " fill="#6E6E6E" transform="translate(173,157)"/>
<path d="M0 0 C1.7074998 1.28062485 3.37373596 2.61767557 5 4 C5 4.66 5 5.32 5 6 C2.11562221 4.70700306 0.12780579 3.34058637 -2 1 C-1.34 0.67 -0.68 0.34 0 0 Z " fill="#6D6D6D" transform="translate(94,155)"/>
<path d="M0 0 C1.5 1.1875 1.5 1.1875 3 3 C3.1875 5.6875 3.1875 5.6875 3 8 C2.34 8 1.68 8 1 8 C0.67 5.36 0.34 2.72 0 0 Z " fill="#606060" transform="translate(120,142)"/>
<path d="M0 0 C0.66 0.33 1.32 0.66 2 1 C0.35 2.98 -1.3 4.96 -3 7 C-3.99 6.67 -4.98 6.34 -6 6 C-4 4 -2 2 0 0 Z " fill="#CCCBCB" transform="translate(87,140)"/>
<path d="M0 0 C0.99 0.33 1.98 0.66 3 1 C4.1875 4.5625 4.1875 4.5625 5 8 C2.5 6.25 2.5 6.25 0 4 C0 2.68 0 1.36 0 0 Z " fill="#848484" transform="translate(512,87)"/>
</svg>
